<svg fill="#ffffff" xmlns="http://www.w3.org/2000/svg" viewBox="0 0 64 64" width="64px" height="64px"><path d="M 30.972656 2.003906 C 29.230469 2.023438 27.53125 2.136719 25.859375 2.339844 C 21.660156 2.851563 18.492188 3.671875 15.589844 5 C 9.769531 7.65625 6.273438 11.972656 5.203125 17.828125 C 4.707031 20.523438 4.371094 22.976563 4.179688 25.328125 C 3.726563 30.785156 4.136719 35.621094 5.4375 40.113281 C 6.742188 44.628906 9.039063 47.863281 12.417969 49.972656 C 14.617188 51.488281 16.988281 52.007813 18.261719 52.28125 C 18.316406 52.296875 18.371094 52.308594 18.429688 52.320313 C 18.210938 55.507813 16.902344 61.542969 16.890625 61.609375 C 16.808594 61.976563 16.945313 62.363281 17.238281 62.597656 C 17.421875 62.746094 17.640625 62.820313 17.863281 62.820313 C 18.007813 62.820313 18.148438 62.789063 18.28125 62.730469 C 18.542969 62.609375 24.675781 59.75 29.21875 54.246094 L 29.5 53.933594 C 29.523438 53.910156 29.542969 53.890625 29.558594 53.871094 C 32.246094 53.816406 35.019531 53.710938 37.808594 53.5625 C 41.25 53.375 45.246094 53.042969 49.058594 51.457031 C 52.644531 49.96875 55.265625 47.597656 56.84375 44.40625 C 58.4375 41.199219 59.378906 37.730469 59.734375 33.800781 C 60.34375 26.996094 59.90625 21.078125 58.394531 15.714844 C 57.328125 11.921875 55.207031 8.914063 52.09375 6.785156 C 48.253906 4.152344 43.886719 3.226563 40.121094 2.667969 C 36.90625 2.191406 33.878906 1.96875 30.972656 2.003906 Z M 31.550781 4 C 34.183594 4 36.925781 4.214844 39.828125 4.648438 C 43.367188 5.171875 47.457031 6.035156 50.96875 8.4375 C 53.683594 10.296875 55.535156 12.925781 56.472656 16.257813 C 57.914063 21.382813 58.332031 27.0625 57.742188 33.625 C 57.457031 36.78125 56.742188 39.601563 55.613281 42.230469 C 55.445313 42.09375 55.234375 42 55 42 C 54.449219 42 54 42.445313 54 43 L 54 45 C 54 45.066406 54.023438 45.125 54.035156 45.1875 C 52.660156 47.105469 50.742188 48.59375 48.289063 49.609375 C 44.769531 51.074219 40.976563 51.382813 37.699219 51.5625 C 34.910156 51.710938 32.128906 51.816406 29.4375 51.871094 C 28.707031 51.882813 28.464844 52.085938 28.003906 52.609375 L 27.703125 52.941406 C 24.898438 56.339844 21.378906 58.703125 19.277344 59.929688 C 19.746094 57.542969 20.433594 53.722656 20.457031 51.648438 C 20.46875 50.71875 19.601563 50.527344 18.683594 50.328125 C 17.464844 50.0625 15.425781 49.621094 13.515625 48.304688 C 12.132813 47.441406 10.96875 46.351563 9.992188 45.046875 C 9.992188 45.027344 10 45.015625 10 45 L 10 43 C 10 42.445313 9.550781 42 9 42 C 8.746094 42 8.523438 42.101563 8.347656 42.253906 C 7.96875 41.421875 7.636719 40.527344 7.359375 39.5625 C 6.128906 35.304688 5.738281 30.703125 6.171875 25.492188 C 6.359375 23.210938 6.6875 20.820313 7.171875 18.1875 C 8.117188 13.015625 11.230469 9.191406 16.421875 6.820313 C 19.132813 5.578125 22.117188 4.808594 26.105469 4.324219 C 27.875 4.105469 29.6875 4 31.550781 4 Z M 35.492188 9.953125 C 34.375 9.953125 33.261719 10.074219 32.183594 10.316406 C 31.644531 10.441406 31.304688 10.976563 31.425781 11.515625 C 31.546875 12.054688 32.082031 12.394531 32.625 12.269531 C 33.558594 12.058594 34.523438 11.953125 35.496094 11.953125 C 41.800781 11.953125 47.289063 16.621094 48.25 22.8125 C 48.328125 23.304688 48.753906 23.65625 49.238281 23.65625 C 49.289063 23.65625 49.339844 23.65625 49.390625 23.644531 C 49.9375 23.5625 50.3125 23.050781 50.226563 22.503906 C 49.113281 15.347656 42.777344 9.953125 35.492188 9.953125 Z M 21.660156 13.511719 C 21.375 13.5 21.089844 13.527344 20.796875 13.59375 C 18.304688 14.140625 15.367188 16.078125 15.285156 19.753906 C 15.285156 19.816406 15.289063 19.878906 15.300781 19.9375 C 15.320313 20.050781 15.328125 20.167969 15.34375 20.285156 C 15.375 20.625 15.414063 21.007813 15.578125 21.40625 C 15.765625 21.871094 15.953125 22.339844 16.136719 22.808594 C 16.691406 24.210938 17.265625 25.667969 18.011719 27.035156 C 21.558594 33.558594 26.609375 38.789063 33.066406 42.664063 C 33.03125 42.769531 33 42.882813 33 43 L 33 45 C 33 45.554688 33.449219 46 34 46 C 34.550781 46 35 45.554688 35 45 L 35 43.761719 C 36.324219 44.46875 37.691406 45.128906 39.125 45.734375 C 39.863281 46.042969 40.59375 46.203125 41.304688 46.203125 C 41.9375 46.203125 42.554688 46.074219 43.152344 45.828125 C 44.9375 45.085938 46.300781 43.964844 47.203125 42.5 C 48.222656 40.839844 49.03125 38.671875 46.214844 36.613281 C 45.746094 36.269531 45.28125 35.925781 44.8125 35.578125 C 44.042969 35.007813 43.265625 34.433594 42.480469 33.875 C 41.082031 32.886719 39.6875 32.5 38.453125 32.761719 C 37.320313 32.996094 36.375 33.734375 35.652344 34.9375 C 35.625 34.964844 35.597656 34.996094 35.566406 35.023438 C 35.5625 35.027344 35.492188 35.101563 35.484375 35.109375 C 35.042969 35.574219 34.585938 35.679688 34.007813 35.441406 C 30.417969 33.972656 27.9375 31.703125 26.421875 28.503906 C 25.632813 26.839844 25.769531 26.3125 27.261719 25.195313 C 27.46875 25.039063 27.671875 24.875 27.859375 24.703125 C 29.015625 23.65625 29.300781 22.277344 28.640625 20.910156 C 27.484375 18.511719 25.9375 16.386719 24.046875 14.59375 C 23.328125 13.90625 22.511719 13.542969 21.660156 13.511719 Z M 34.46875 14.785156 C 33.863281 14.785156 33.242188 14.839844 32.628906 14.9375 C 32.082031 15.03125 31.710938 15.542969 31.800781 16.089844 C 31.894531 16.632813 32.40625 17.003906 32.953125 16.910156 C 33.460938 16.828125 33.96875 16.785156 34.46875 16.785156 C 39.488281 16.785156 43.574219 20.847656 43.574219 25.832031 C 43.574219 26.335938 43.53125 26.84375 43.449219 27.34375 C 43.355469 27.890625 43.726563 28.402344 44.269531 28.496094 C 44.328125 28.503906 44.382813 28.511719 44.4375 28.511719 C 44.914063 28.511719 45.339844 28.164063 45.421875 27.671875 C 45.523438 27.066406 45.574219 26.445313 45.574219 25.835938 C 45.574219 19.746094 40.59375 14.785156 34.46875 14.785156 Z M 21.5 15.511719 C 21.804688 15.5 22.203125 15.59375 22.671875 16.042969 C 24.386719 17.667969 25.789063 19.597656 26.84375 21.78125 C 27.074219 22.257813 27.109375 22.6875 26.515625 23.21875 C 26.371094 23.351563 26.21875 23.476563 26.0625 23.59375 C 23.816406 25.273438 23.421875 26.835938 24.613281 29.359375 C 26.332031 32.976563 29.238281 35.644531 33.25 37.289063 C 34.589844 37.839844 35.933594 37.542969 36.996094 36.421875 C 37.097656 36.320313 37.234375 36.183594 37.347656 35.988281 C 37.789063 35.261719 38.296875 34.835938 38.859375 34.71875 C 39.71875 34.535156 40.675781 35.046875 41.328125 35.507813 C 42.101563 36.054688 42.859375 36.621094 43.621094 37.1875 C 44.089844 37.535156 44.558594 37.882813 45.03125 38.230469 C 46.375 39.207031 46.46875 39.871094 45.5 41.453125 C 44.820313 42.554688 43.773438 43.402344 42.386719 43.980469 C 41.617188 44.296875 40.804688 44.269531 39.902344 43.886719 C 30.90625 40.105469 24.132813 34.109375 19.765625 26.078125 C 19.078125 24.816406 18.554688 23.480469 18 22.070313 C 17.808594 21.59375 17.621094 21.117188 17.425781 20.640625 C 17.375 20.515625 17.355469 20.304688 17.332031 20.078125 C 17.320313 19.957031 17.304688 19.835938 17.289063 19.714844 C 17.386719 17.253906 19.378906 15.949219 21.226563 15.546875 C 21.308594 15.527344 21.398438 15.511719 21.5 15.511719 Z M 33.285156 19.625 C 32.734375 19.625 32.285156 20.070313 32.285156 20.625 C 32.285156 21.175781 32.734375 21.625 33.285156 21.625 C 36.28125 21.625 38.71875 24.042969 38.71875 27.015625 C 38.71875 27.570313 39.164063 28.015625 39.71875 28.015625 C 40.269531 28.015625 40.71875 27.570313 40.71875 27.015625 C 40.71875 22.941406 37.382813 19.625 33.285156 19.625 Z M 49.4375 24.8125 C 48.894531 24.769531 48.40625 25.1875 48.367188 25.738281 C 48.320313 26.378906 48.222656 27.015625 48.082031 27.636719 C 47.957031 28.171875 48.292969 28.710938 48.832031 28.832031 C 48.90625 28.851563 48.984375 28.859375 49.058594 28.859375 C 49.511719 28.859375 49.925781 28.542969 50.03125 28.078125 C 50.195313 27.363281 50.304688 26.625 50.359375 25.886719 C 50.402344 25.335938 49.988281 24.855469 49.4375 24.8125 Z M 14 42 C 13.449219 42 13 42.445313 13 43 L 13 45 C 13 45.554688 13.449219 46 14 46 C 14.550781 46 15 45.554688 15 45 L 15 43 C 15 42.445313 14.550781 42 14 42 Z M 19 42 C 18.449219 42 18 42.445313 18 43 L 18 45 C 18 45.554688 18.449219 46 19 46 C 19.550781 46 20 45.554688 20 45 L 20 43 C 20 42.445313 19.550781 42 19 42 Z M 24 42 C 23.449219 42 23 42.445313 23 43 L 23 45 C 23 45.554688 23.449219 46 24 46 C 24.550781 46 25 45.554688 25 45 L 25 43 C 25 42.445313 24.550781 42 24 42 Z M 29 42 C 28.449219 42 28 42.445313 28 43 L 28 45 C 28 45.554688 28.449219 46 29 46 C 29.550781 46 30 45.554688 30 45 L 30 43 C 30 42.445313 29.550781 42 29 42 Z M 50 42 C 49.449219 42 49 42.445313 49 43 L 49 45 C 49 45.554688 49.449219 46 50 46 C 50.550781 46 51 45.554688 51 45 L 51 43 C 51 42.445313 50.550781 42 50 42 Z"/></svg>